# xmcd
#
# Track frame offsets:
#	150
#	6326
#	12550
#	21366
#	30355
#	44621
#	53440
#	61168
#	75043
#	89670
#	106512
#	117365
#	124635
#	143955
#	149576
#	165698
#	171960
#	178556
#	191276
#	209819
#	219049
#	236409
#	247197
#	262001
#
# Disc length: 3717 seconds
#
# Revision: 1
# Processed by: cddbd v1.5.2PL0 Copyright (c) Steve Scherf et al.
# Submitted via: audiograbber 1.83.01
#
DISCID=4a0e8318
DTITLE=Biermösl Blosn - Ex Voto
DYEAR=1980
DGENRE=
TTITLE0=Muh-Landler
TTITLE1=O hlg. St. Castulus
TTITLE2=Nostalgie
TTITLE3=Alte Kameraden
TTITLE4=Der Schwalanscher
TTITLE5=Bin ich ein Bursch
TTITLE6='s Biermoos
TTITLE7=Adam und Eva
TTITLE8=Die Wallfahrt
TTITLE9=Es wollt ein Bauer
TTITLE10=Der Karmeliter
TTITLE11=Hauslandler
TTITLE12=Trachtenschau
TTITLE13=Schnapseinbringer
TTITLE14=Medley: Der Ammersee
TTITLE15=Am Flugplatz z'Riem
TTITLE16=Die Mädchen
TTITLE17=Es ging ein Jäger jagen
TTITLE18=Bettlmandl
TTITLE19=De Hörbachtoni
TTITLE20=Die Höchzeitsnacht
TTITLE21=Hallo kleines Fräulein
TTITLE22=Was woll'n wir auf den Abend tun
TTITLE23=Daten-CD
EXTD=
EXTT0=
EXTT1=
EXTT2=
EXTT3=
EXTT4=
EXTT5=
EXTT6=
EXTT7=
EXTT8=
EXTT9=
EXTT10=
EXTT11=
EXTT12=
EXTT13=
EXTT14=
EXTT15=
EXTT16=
EXTT17=
EXTT18=
EXTT19=
EXTT20=
EXTT21=
EXTT22=
EXTT23=
PLAYORDER=
